<?xml version="1.0" standalone="no"?>
<!DOCTYPE svg PUBLIC "-//W3C//DTD SVG 20010904//EN"
 "http://www.w3.org/TR/2001/REC-SVG-20010904/DTD/svg10.dtd">
<svg version="1.0" xmlns="http://www.w3.org/2000/svg"
 width="64.000000pt" height="64.000000pt" viewBox="0 0 64.000000 64.000000"
 preserveAspectRatio="xMidYMid meet">

<g transform="translate(0.000000,64.000000) scale(0.100000,-0.100000)"
fill="#000000" stroke="none">
<path d="M83 385 c-58 -24 -56 -107 2 -131 42 -17 92 4 101 42 17 66 -41 115
-103 89z m69 -32 c22 -20 23 -41 1 -65 -23 -26 -59 -23 -79 7 -15 23 -15 27 0
50 19 29 51 32 78 8z"/>
<path d="M295 390 c-77 -30 -57 -143 25 -143 41 0 73 32 73 73 0 50 -53 88
-98 70z m63 -32 c7 -7 12 -24 12 -38 0 -14 -5 -31 -12 -38 -15 -15 -61 -15
-76 0 -15 15 -15 61 0 76 7 7 24 12 38 12 14 0 31 -5 38 -12z"/>
<path d="M493 385 c-58 -24 -56 -107 2 -131 42 -17 92 4 101 42 17 66 -41 115
-103 89z m73 -40 c15 -23 15 -27 0 -50 -19 -29 -51 -32 -78 -8 -22 20 -23 41
-1 65 23 26 59 23 79 -7z"/>
</g>
</svg>
